<?xml version="1.0" standalone="no"?>
<!DOCTYPE svg PUBLIC "-//W3C//DTD SVG 20010904//EN"
 "http://www.w3.org/TR/2001/REC-SVG-20010904/DTD/svg10.dtd">
<svg version="1.0" xmlns="http://www.w3.org/2000/svg"
 width="736.000000pt" height="366.000000pt" viewBox="0 0 736.000000 366.000000"
 preserveAspectRatio="xMidYMid meet">

<g transform="translate(0.000000,366.000000) scale(0.100000,-0.100000)"
fill="red" stroke="none">
<path d="M6705 3036 c-33 -7 -81 -20 -108 -29 -39 -14 -51 -15 -68 -4 -16 10
-21 9 -29 -3 -5 -8 -8 -20 -6 -25 2 -6 -4 -11 -13 -12 -9 -1 -34 -4 -56 -7
-22 -2 -70 -7 -107 -10 -58 -4 -66 -3 -61 11 5 11 1 14 -13 10 -32 -9 -126
-26 -179 -32 -27 -3 -72 -11 -99 -17 -46 -10 -48 -12 -30 -26 18 -14 18 -14
-6 -8 -60 14 -76 17 -56 8 18 -8 18 -9 2 -15 -10 -4 -23 -4 -28 -1 -6 4 -41 6
-77 5 -84 -2 -348 -45 -303 -49 17 -2 32 -9 32 -16 0 -19 -12 -27 -24 -17 -6
5 -47 10 -91 11 -115 4 -147 1 -140 -10 3 -6 -1 -7 -10 -4 -8 4 -70 -2 -138
-11 -130 -19 -177 -33 -117 -36 l35 -1 -40 -9 c-53 -11 -77 -11 -71 -1 3 5 -8
9 -24 10 -23 0 -28 -3 -23 -16 6 -14 4 -15 -9 -4 -13 10 -33 10 -109 -3 -52
-9 -127 -20 -168 -25 -73 -10 -105 -20 -64 -20 24 0 36 -23 21 -38 -21 -21 3
-28 74 -21 40 4 98 12 128 18 30 6 87 15 126 21 66 11 71 13 66 33 -3 12 -2
19 2 15 4 -3 22 -2 39 3 26 7 34 6 44 -8 12 -15 14 -15 33 2 l21 19 -23 18
c-16 12 -18 18 -8 17 20 0 50 -23 50 -38 0 -7 -4 -10 -9 -6 -5 3 -12 1 -16 -5
-9 -15 62 -13 174 5 134 22 143 24 136 35 -3 6 -2 10 4 10 5 0 12 -6 15 -12 5
-10 7 -10 12 -1 3 7 12 9 19 6 19 -7 155 16 155 27 0 4 10 5 23 3 12 -2 65 3
117 12 52 8 115 18 140 21 65 7 198 32 178 33 -10 1 -18 6 -18 12 0 7 8 9 23
4 40 -14 102 -7 86 9 -4 5 -62 13 -97 15 -7 1 -11 5 -8 9 3 5 22 8 43 7 21 -1
43 1 48 5 20 15 75 17 75 3 0 -7 -7 -13 -16 -13 -10 0 -14 -6 -11 -14 3 -8 3
-17 -1 -19 -4 -2 -1 -2 6 0 8 1 26 3 40 3 18 0 23 3 14 8 -9 6 -5 12 14 21 22
9 28 9 38 -3 10 -13 25 -12 126 5 63 10 117 24 118 29 3 7 8 7 15 2 8 -6 44
-5 96 4 82 13 125 28 66 23 -16 -1 -40 -1 -53 -1 -21 2 -21 4 11 32 25 21 47
31 83 34 29 3 51 1 55 -6 4 -6 18 -12 32 -13 14 -2 31 -6 36 -10 16 -9 13 21
-3 34 -22 18 -75 21 -141 7z m-468 -106 c-1 -11 -2 -20 -3 -20 -1 0 -10 3 -18
6 -13 5 -14 9 -5 20 16 20 28 17 26 -6z m93 -21 c0 -6 -4 -7 -10 -4 -5 3 -10
11 -10 16 0 6 5 7 10 4 6 -3 10 -11 10 -16z m-30 -3 c0 -2 -7 -7 -16 -10 -8
-3 -12 -2 -9 4 6 10 25 14 25 6z m-665 -66 c-27 -12 -35 -12 -35 0 0 6 12 10
28 9 24 0 25 -1 7 -9z m-750 -139 c19 -8 19 -8 -1 -19 -11 -6 -29 -9 -40 -7
-10 2 -21 4 -23 4 -6 1 33 30 39 30 3 0 14 -4 25 -8z m-315 -21 c0 -5 -5 -10
-11 -10 -5 0 -7 5 -4 10 3 6 8 10 11 10 2 0 4 -4 4 -10z"/>
<path d="M6763 2901 c6 -42 89 -571 102 -648 5 -25 11 -33 28 -34 l22 0 -22
-11 c-17 -8 -21 -17 -18 -34 3 -13 7 -35 10 -47 4 -21 11 -24 55 -26 36 -1 52
3 56 13 3 8 -8 104 -26 213 -42 269 -40 263 -56 263 -17 0 -19 27 -3 32 9 3 7
34 -5 118 -25 161 -23 158 -51 153 -32 -7 -42 15 -10 23 46 11 28 29 -31 30
l-56 1 5 -46z m102 -91 c3 -5 1 -10 -4 -10 -6 0 -11 5 -11 10 0 6 2 10 4 10 3
0 8 -4 11 -10z m5 -100 c0 -5 -4 -10 -9 -10 -6 0 -13 5 -16 10 -3 6 1 10 9 10
9 0 16 -4 16 -10z m-5 -100 c3 -5 1 -10 -4 -10 -6 0 -11 5 -11 10 0 6 2 10 4
10 3 0 8 -4 11 -10z m61 -337 c-11 -11 -19 6 -11 24 8 17 8 17 12 0 3 -10 2
-21 -1 -24z m26 -95 c-5 -22 -22 -24 -22 -3 0 8 -8 15 -17 15 -15 0 -15 2 2
14 23 16 44 1 37 -26z m13 -48 c8 -13 -15 -13 -35 0 -12 8 -11 10 7 10 12 0
25 -4 28 -10z"/>
<path d="M6529 2686 c-2 -3 -27 -8 -54 -11 -91 -11 -96 -13 -89 -39 3 -13 25
-44 49 -69 23 -25 48 -62 55 -84 16 -47 28 -63 49 -63 39 1 44 14 31 91 -16
100 -19 109 -38 109 -16 1 -15 2 1 14 12 10 15 19 9 35 -4 12 -10 20 -13 17z
m-14 -156 c3 -5 -1 -10 -9 -10 -9 0 -16 5 -16 10 0 6 4 10 9 10 6 0 13 -4 16
-10z"/>
<path d="M4245 2649 c-68 -10 -90 -17 -57 -18 12 -1 22 -5 22 -11 0 -14 -26
-13 -49 2 -15 9 -42 8 -122 -6 -57 -9 -105 -21 -107 -26 -2 -6 -15 -7 -29 -4
-18 5 -24 3 -19 -5 4 -6 2 -11 -3 -11 -6 0 -11 5 -11 11 0 6 -8 3 -17 -7 -11
-11 -18 -13 -21 -5 -2 6 -8 11 -13 11 -4 0 -6 -7 -3 -15 4 -10 13 -13 25 -10
11 4 19 2 19 -3 0 -11 38 -4 56 10 6 4 29 7 50 6 30 -2 38 0 36 12 -3 11 2 9
18 -5 11 -10 18 -25 16 -32 -6 -16 23 -17 44 -2 13 9 12 10 -2 5 -10 -3 -20
-2 -22 3 -3 4 36 7 87 8 110 0 137 6 130 32 -6 24 27 33 52 15 18 -13 18 -14
-3 -14 -12 0 -22 -4 -22 -8 0 -11 61 -3 77 10 7 5 16 7 21 4 6 -3 15 1 22 9 7
8 21 15 32 15 11 0 18 5 16 12 -3 7 -26 12 -59 13 -30 1 -65 4 -79 7 -14 3
-52 1 -85 -3z m-95 -39 c-19 -13 -30 -13 -30 0 0 6 10 10 23 10 18 0 19 -2 7
-10z m100 -19 c0 -5 -11 -11 -25 -13 -26 -5 -35 6 -12 15 20 9 37 8 37 -2z"/>
<path d="M6170 2630 c-58 -10 -106 -19 -107 -19 -8 -2 1 -70 48 -359 l51 -316
-26 -21 c-28 -22 -34 -52 -13 -61 22 -8 330 46 347 61 9 8 23 15 30 15 10 0
11 3 3 11 -9 9 -20 9 -44 0 -17 -6 -41 -11 -52 -11 -16 0 -17 3 -7 15 10 12 9
16 -4 21 -15 6 -14 10 8 33 l26 27 -25 144 c-14 80 -25 146 -25 148 0 8 -49 0
-52 -9 -2 -5 -11 -7 -21 -3 -16 6 -15 8 10 19 15 7 37 16 48 20 19 6 19 7 2
20 -12 8 -14 14 -6 17 8 3 7 32 -7 113 -10 61 -21 111 -25 113 -4 2 -5 12 -2
22 7 25 -11 25 -157 0z m90 -10 c-19 -13 -30 -13 -30 0 0 6 10 10 23 10 18 0
19 -2 7 -10z m60 -46 c0 -9 -28 -34 -38 -34 -6 0 -12 5 -14 11 -4 12 -58 2
-58 -12 0 -4 12 -15 28 -23 25 -14 23 -17 -10 -20 -7 -1 -16 -5 -20 -11 -7 -9
-13 26 -9 49 1 4 -10 5 -24 2 -14 -4 -25 -2 -25 4 0 5 10 10 23 11 12 0 38 7
57 14 36 14 90 19 90 9z m-175 -64 c-3 -5 -10 -10 -16 -10 -5 0 -9 5 -9 10 0
6 7 10 16 10 8 0 12 -4 9 -10z m85 -130 c0 -5 -6 -10 -12 -10 -7 0 -31 -2 -53
-5 l-40 -5 40 14 c50 17 65 19 65 6z m55 -30 c-3 -5 -17 -10 -31 -10 -13 0
-24 5 -24 10 0 6 14 10 31 10 17 0 28 -4 24 -10z m-40 -430 c-3 -5 -10 -10
-16 -10 -5 0 -9 5 -9 10 0 6 7 10 16 10 8 0 12 -4 9 -10z"/>
<path d="M4469 2609 c-10 -6 -7 -9 14 -9 29 0 35 5 14 13 -8 3 -20 1 -28 -4z"/>
<path d="M5942 2593 c-13 -3 -19 -9 -16 -15 5 -8 -3 -9 -26 -5 -18 4 -38 3
-45 -3 -18 -15 -7 -56 18 -68 18 -9 19 -11 5 -11 -10 -1 -18 -5 -18 -11 0 -10
14 -14 38 -11 20 3 14 -16 -8 -22 -15 -4 -20 -14 -20 -40 0 -60 16 -89 47 -85
26 3 28 7 38 78 6 46 19 89 33 112 40 64 22 95 -46 81z m-52 -43 c0 -5 -4 -10
-10 -10 -5 0 -10 5 -10 10 0 6 5 10 10 10 6 0 10 -4 10 -10z m87 -5 c0 -8 -6
-15 -14 -15 -14 0 -17 12 -6 23 11 11 20 8 20 -8z m-17 -55 c0 -5 -11 -10 -24
-10 -14 0 -28 5 -31 10 -4 6 7 10 24 10 17 0 31 -4 31 -10z m-30 -80 c0 -5 -4
-10 -10 -10 -5 0 -10 5 -10 10 0 6 5 10 10 10 6 0 10 -4 10 -10z"/>
<path d="M3706 2560 c-16 -5 -33 -7 -38 -4 -5 3 -16 -2 -23 -12 -9 -11 -14
-14 -15 -6 0 17 -45 15 -63 -3 -11 -10 -17 -11 -19 -3 -3 7 -11 9 -24 3 -10
-4 -35 -9 -55 -11 -21 -2 -122 -17 -226 -34 -105 -16 -200 -30 -212 -30 -26 0
-40 -28 -20 -42 10 -7 5 -8 -18 -4 -19 3 -33 1 -35 -6 -3 -7 -21 -12 -41 -12
-20 0 -37 -4 -37 -9 0 -4 5 -5 10 -2 14 9 13 -8 -2 -23 -16 -16 6 -16 63 1 25
8 54 12 64 11 25 -4 157 16 170 26 6 4 20 6 32 5 12 -1 19 3 16 8 -3 5 4 6 17
2 34 -11 90 3 83 20 -4 12 4 15 37 15 34 0 40 3 31 13 -6 8 -8 17 -4 20 11 12
23 8 23 -8 0 -9 9 -15 25 -15 14 0 25 -5 25 -11 0 -7 8 -9 23 -4 12 4 30 7 39
6 10 0 20 4 23 9 3 5 19 7 35 3 18 -3 30 -1 30 5 0 15 -25 21 -67 16 l-38 -4
30 14 c41 20 112 20 133 0 12 -13 27 -15 74 -10 95 11 140 46 59 46 -23 0 -31
-3 -23 -9 8 -4 -8 -7 -39 -7 -35 1 -54 6 -57 15 -3 10 2 12 23 7 17 -4 24 -3
20 4 -3 5 1 10 10 10 9 0 13 5 10 10 -7 11 -9 11 -49 0z m-631 -156 c-9 -9
-19 -13 -23 -10 -3 4 0 11 8 16 24 15 33 11 15 -6z"/>
<path d="M5631 2544 c-80 -14 -86 -17 -76 -33 7 -12 100 -6 148 9 16 6 38 5
52 0 26 -10 42 9 22 29 -14 14 -51 13 -146 -5z"/>
<path d="M5180 2471 c-152 -25 -155 -27 -155 -51 0 -19 6 -26 25 -28 14 -2 28
-7 32 -10 3 -4 25 -128 48 -277 23 -148 48 -280 55 -292 12 -18 23 -21 76 -19
54 2 63 -1 71 -20 7 -16 16 -20 32 -16 18 5 19 3 8 -11 -12 -14 -6 -16 65 -14
43 2 84 6 91 10 15 10 16 37 1 37 -5 0 -8 4 -4 9 3 5 -3 12 -13 15 -52 17 -59
40 -102 311 -23 143 -43 270 -46 281 -4 16 3 28 27 47 42 33 34 57 -18 56 -21
-1 -108 -13 -193 -28z m190 -1 c0 -5 -7 -10 -16 -10 -8 0 -12 5 -9 10 3 6 10
10 16 10 5 0 9 -4 9 -10z m-70 -10 c0 -5 -4 -10 -10 -10 -5 0 -10 5 -10 10 0
6 5 10 10 10 6 0 10 -4 10 -10z m-170 -30 c0 -5 -4 -10 -9 -10 -6 0 -13 5 -16
10 -3 6 1 10 9 10 9 0 16 -4 16 -10z m55 -20 c3 -5 1 -10 -4 -10 -6 0 -11 5
-11 10 0 6 2 10 4 10 3 0 8 -4 11 -10z m157 -62 c-11 -11 -32 -3 -32 12 0 4 9
6 21 3 13 -4 17 -9 11 -15z m-17 -522 c11 -8 17 -17 14 -21 -4 -3 -13 1 -21 8
-11 11 -25 13 -54 8 -42 -8 -67 -4 -59 8 8 14 100 12 120 -3z m113 -31 c-3 -3
-9 2 -12 12 -6 14 -5 15 5 6 7 -7 10 -15 7 -18z m-30 3 c13 -13 16 -28 5 -28
-5 0 -19 9 -33 20 -23 18 -24 20 -4 20 11 0 25 -5 32 -12z m102 -38 c0 -5 -2
-10 -4 -10 -3 0 -8 5 -11 10 -3 6 -1 10 4 10 6 0 11 -4 11 -10z"/>
<path d="M5650 2460 c-12 -8 -10 -10 10 -10 l24 0 -23 -17 -24 -16 24 -10 c20
-9 21 -11 6 -14 -14 -4 -16 -11 -12 -36 30 -175 55 -348 55 -379 0 -59 -24
-104 -75 -140 -52 -37 -55 -61 -8 -66 58 -6 132 81 147 173 5 27 -5 112 -28
254 -19 117 -32 219 -29 227 3 8 -1 14 -11 14 -9 0 -16 7 -16 15 0 17 -18 19
-40 5z m5 -659 c10 -17 -11 -21 -31 -6 -18 14 -18 14 3 15 12 0 24 -4 28 -9z"/>
<path d="M2888 2436 c-37 -6 -70 -14 -74 -18 -4 -5 -30 -8 -58 -8 -41 -1 -47
-3 -33 -11 10 -6 36 -9 57 -7 21 2 36 0 34 -3 -2 -4 2 -9 8 -12 7 -3 -7 -4
-32 -3 -25 1 -53 6 -63 11 -13 5 -22 2 -32 -11 -14 -18 -14 -18 -10 4 5 26
-12 29 -31 5 -10 -13 -16 -15 -22 -6 -8 13 -29 13 -49 0 -18 -11 -16 -30 2
-23 9 3 15 0 15 -10 0 -14 -9 -15 -59 -9 -53 6 -60 5 -70 -13 -8 -16 -21 -20
-56 -20 -31 0 -45 4 -42 11 2 7 20 12 40 12 21 0 36 4 34 10 -3 9 -59 10 -147
2 -25 -3 -57 -5 -71 -6 -18 -1 -28 -8 -32 -21 -5 -21 3 -26 19 -11 16 15 72
21 77 8 2 -6 18 -11 38 -9 25 2 30 0 19 -8 -8 -5 -26 -10 -40 -10 -27 -1 -115
-38 -90 -39 8 0 33 6 55 14 22 8 74 17 115 20 94 7 123 13 132 28 5 8 8 9 8 1
0 -13 78 -2 89 12 3 5 33 9 66 10 33 0 71 6 85 14 14 7 42 12 63 11 37 -3 52
14 22 25 -8 4 -15 9 -15 13 0 12 49 31 80 31 34 0 60 9 60 21 0 10 -3 10 -92
-5z"/>
<path d="M4597 2394 c-12 -13 -8 -54 6 -54 8 0 23 -10 35 -23 17 -17 26 -56
47 -187 14 -91 35 -220 45 -286 21 -128 20 -148 -11 -165 -20 -10 -24 -35 -10
-57 13 -21 112 22 170 74 86 78 121 158 121 284 0 178 -95 337 -233 388 -58
22 -159 37 -170 26z m173 -83 c0 -12 -20 -25 -27 -18 -7 7 6 27 18 27 5 0 9
-4 9 -9z"/>
<path d="M4430 2345 c-118 -63 -177 -156 -187 -296 -10 -147 35 -269 132 -357
63 -58 151 -92 234 -92 47 0 47 0 43 29 -3 21 -11 31 -28 35 -13 4 -28 14 -33
24 -9 17 -83 470 -94 578 -5 43 -3 51 10 50 20 -1 38 27 30 48 -9 24 -35 19
-107 -19z"/>
<path d="M2468 2353 c6 -2 18 -2 25 0 6 3 1 5 -13 5 -14 0 -19 -2 -12 -5z"/>
<path d="M1873 2268 c1 -8 -12 -11 -42 -9 -24 2 -93 -5 -152 -15 -93 -15 -109
-20 -109 -36 0 -18 -10 -22 -40 -18 -23 3 -26 10 -10 20 19 12 -77 1 -102 -11
-9 -5 -39 -9 -67 -9 -27 0 -62 -5 -78 -11 -15 -6 -54 -12 -86 -14 -62 -3 -80
-11 -58 -25 8 -5 11 -15 7 -25 -5 -14 -4 -16 7 -6 11 8 20 7 39 -9 20 -16 32
-18 57 -10 38 11 34 10 72 10 27 0 30 2 19 15 -10 12 -9 15 7 15 10 0 23 -4
29 -9 5 -6 38 -6 87 1 62 9 77 14 77 28 0 24 77 33 89 11 6 -9 13 -11 22 -5 8
5 24 7 35 6 12 -2 61 4 109 12 63 11 94 22 107 36 11 12 29 20 41 18 20 -3 57
18 57 32 0 4 -13 5 -30 2 -18 -3 -30 0 -30 7 0 6 -13 11 -30 11 -18 0 -29 -5
-27 -12z m-205 -54 c25 -18 29 -44 6 -44 -8 0 -12 5 -9 11 4 6 -2 13 -14 16
-12 3 -21 12 -21 19 0 18 10 18 38 -2z m-53 -4 c3 -5 1 -10 -4 -10 -6 0 -11 5
-11 10 0 6 2 10 4 10 3 0 8 -4 11 -10z m-125 -26 c0 -2 -9 -4 -21 -4 -11 0
-18 4 -14 10 5 8 35 3 35 -6z m298 9 c-10 -2 -26 -2 -35 0 -10 3 -2 5 17 5 19
0 27 -2 18 -5z m-317 -33 c5 0 9 -4 9 -10 0 -5 -7 -10 -15 -10 -8 0 -15 5 -15
11 0 5 -4 7 -10 4 -5 -3 -10 -1 -10 5 0 7 7 9 16 6 9 -3 20 -6 25 -6z m-254
-25 c7 -21 -4 -32 -19 -17 -7 7 -20 12 -31 12 -10 0 -15 5 -12 10 10 16 55 12
62 -5z m70 -11 c-3 -3 -12 -4 -19 -1 -8 3 -5 6 6 6 11 1 17 -2 13 -5z"/>
<path d="M2129 2273 c0 -5 -2 -16 -4 -25 -2 -13 3 -18 19 -18 33 0 37 9 15 31
-20 20 -29 24 -30 12z"/>
<path d="M3384 2174 c3 -9 6 -22 6 -30 0 -10 12 -14 41 -14 32 0 40 -3 35 -15
-3 -8 -1 -27 4 -42 11 -33 80 -475 80 -511 0 -14 -12 -36 -29 -51 -22 -20 -28
-34 -24 -50 7 -29 36 -27 108 8 57 27 153 111 127 111 -7 0 -12 5 -12 10 0 6
9 10 20 10 33 0 63 72 68 167 3 64 0 96 -17 152 -13 43 -27 71 -35 71 -8 0
-16 7 -20 15 -6 18 -32 20 -42 3 -4 -6 -3 -8 4 -4 6 3 13 2 17 -4 3 -6 -1 -13
-9 -16 -20 -8 -21 -24 -2 -24 8 0 18 -4 21 -10 4 -6 -8 -10 -29 -10 -27 0 -36
5 -42 22 -4 13 -2 24 5 26 16 5 3 22 -18 22 -22 0 -78 47 -68 57 5 4 16 2 26
-4 19 -12 111 -6 111 7 0 18 -94 90 -137 104 -26 9 -79 16 -121 16 -63 0 -73
-2 -68 -16z m199 -74 c9 -10 8 -12 -5 -7 -11 4 -21 0 -27 -11 -10 -16 -10 -16
-11 0 0 11 -13 21 -32 28 -31 9 -30 10 15 6 27 -2 54 -9 60 -16z"/>
<path d="M3158 2155 c-75 -12 -141 -26 -147 -29 -6 -4 -11 -15 -11 -25 0 -14
11 -20 50 -25 28 -4 50 -11 50 -16 0 -5 14 -13 32 -18 17 -4 33 -13 36 -20 2
-7 -2 -10 -11 -6 -8 3 -18 1 -22 -5 -4 -8 -12 -8 -25 -1 -13 7 -21 7 -25 -1
-8 -12 -6 -28 41 -317 19 -117 34 -219 34 -227 0 -9 -11 -21 -25 -27 -28 -12
-34 -45 -10 -54 16 -7 306 35 316 45 12 11 -65 464 -79 469 -9 3 -10 8 -2 17
7 8 7 35 -2 89 -6 42 -15 71 -18 65 -4 -6 -9 0 -12 15 -3 14 -1 27 5 29 5 1 7
16 2 35 -8 37 3 37 -177 7z m2 -75 c0 -5 -4 -10 -10 -10 -5 0 -10 5 -10 10 0
6 5 10 10 10 6 0 10 -4 10 -10z m160 -22 c0 -19 -2 -20 -11 -8 -8 11 -12 12
-16 3 -2 -7 -12 -13 -21 -13 -15 0 -15 2 -2 10 13 9 13 10 0 11 -10 0 -8 3 5
9 33 14 45 11 45 -12z m-140 -78 c0 -5 -4 -10 -9 -10 -6 0 -13 5 -16 10 -3 6
1 10 9 10 9 0 16 -4 16 -10z m50 -20 c0 -5 -2 -10 -4 -10 -3 0 -8 5 -11 10 -3
6 -1 10 4 10 6 0 11 -4 11 -10z"/>
<path d="M833 2113 c-24 -2 -43 -8 -43 -14 0 -5 5 -9 10 -9 6 0 10 -4 10 -10
0 -16 -28 -12 -38 6 -11 20 -67 11 -76 -11 -8 -21 10 -27 27 -10 17 17 27 19
27 7 0 -16 -60 -43 -81 -37 -20 7 -21 32 0 28 6 -2 11 3 11 10 0 9 -12 11 -42
8 -24 -3 -35 -6 -25 -9 9 -2 17 -10 17 -17 0 -8 7 -18 16 -23 9 -5 16 -13 15
-18 -1 -21 343 29 372 54 15 13 22 14 37 4 17 -11 18 -10 11 11 -5 12 -15 20
-23 18 -26 -7 -53 -7 -68 0 -21 9 -107 16 -157 12z m57 -17 c0 -3 -4 -8 -10
-11 -5 -3 -10 -1 -10 4 0 6 5 11 10 11 6 0 10 -2 10 -4z"/>
<path d="M6996 2081 c-4 -7 -5 -15 -2 -18 9 -9 19 4 14 18 -4 11 -6 11 -12 0z"/>
<path d="M2606 2066 c-71 -13 -93 -40 -24 -30 l43 7 -24 -26 c-19 -21 -27 -24
-38 -16 -9 8 -17 8 -27 0 -9 -8 -21 -8 -37 -2 -23 9 -23 10 -2 10 27 1 41 21
16 22 -95 7 -173 -7 -173 -30 0 -4 11 -13 25 -19 32 -15 139 -16 130 -2 -7 11
8 14 18 3 14 -13 -17 -33 -52 -33 -28 -1 -32 -3 -20 -10 10 -6 32 -11 51 -12
29 -3 34 -6 30 -23 -3 -11 -7 -15 -9 -9 -2 6 -20 8 -46 4 -50 -6 -49 17 -7
-250 48 -307 48 -290 15 -316 -38 -30 -28 -54 21 -54 49 0 164 20 164 29 0 3
26 8 58 9 31 2 61 7 65 11 8 8 -87 628 -98 639 -3 3 -16 0 -30 -6 -33 -15 -48
-15 -42 1 4 12 8 14 52 16 14 0 25 7 25 15 0 7 11 21 25 30 28 19 33 41 9 50
-21 8 -46 6 -118 -8z m74 -25 c-19 -9 -37 -16 -40 -13 -9 7 34 32 54 32 16 -1
13 -5 -14 -19z m-105 -91 c-3 -5 -17 -10 -31 -10 -13 0 -24 5 -24 10 0 6 14
10 31 10 17 0 28 -4 24 -10z m10 -30 c-27 -12 -35 -12 -35 0 0 6 12 10 28 9
24 0 25 -1 7 -9z m95 -30 c0 -5 -4 -10 -10 -10 -5 0 -10 5 -10 10 0 6 5 10 10
10 6 0 10 -4 10 -10z m-127 -24 c6 -16 -2 -28 -14 -20 -12 7 -11 34 0 34 5 0
11 -6 14 -14z m52 -6 c3 -5 2 -10 -4 -10 -5 0 -13 5 -16 10 -3 6 -2 10 4 10 5
0 13 -4 16 -10z"/>
<path d="M544 2061 c3 -4 -6 -6 -19 -3 -17 3 -27 -1 -31 -12 -7 -19 -40 -21
-48 -3 -5 9 -7 9 -12 -1 -3 -6 -10 -10 -14 -7 -5 3 -11 1 -15 -5 -3 -5 6 -15
20 -20 14 -5 24 -14 21 -19 -3 -4 3 -61 14 -125 11 -65 20 -119 20 -122 0 -2
10 -4 23 -4 19 -1 20 -2 7 -13 -8 -7 -16 -19 -18 -28 -2 -16 25 -199 30 -204
2 -2 14 1 27 6 18 7 21 12 12 23 -6 7 -9 15 -6 18 5 4 -34 261 -51 340 -3 15
-13 29 -22 31 -15 4 -15 5 1 6 10 0 17 7 14 14 -7 21 12 47 36 47 16 0 19 3 8
9 -11 7 -9 11 8 20 17 10 21 9 21 -4 0 -11 10 -15 35 -15 19 0 35 5 35 10 0 6
-13 10 -30 10 -16 0 -30 5 -30 10 0 6 -9 10 -21 10 -19 0 -19 1 -5 16 20 19
20 24 0 24 -8 0 -13 -4 -10 -9z"/>
<path d="M380 1973 c0 -10 3 -42 7 -71 4 -38 10 -52 19 -48 20 8 29 -15 12
-28 -12 -9 -15 -23 -11 -59 3 -26 9 -47 14 -47 5 0 6 -7 3 -15 -3 -8 -3 -19 1
-25 4 -6 8 -34 10 -63 2 -29 7 -68 10 -87 4 -19 24 -147 46 -285 22 -137 42
-251 45 -254 2 -3 25 16 51 41 l46 46 -27 184 c-34 226 -32 220 -59 216 -18
-2 -21 -9 -19 -35 2 -18 -1 -33 -6 -33 -9 0 -26 55 -23 73 0 4 -6 49 -15 100
-8 50 -18 110 -20 132 -3 22 -8 47 -11 55 -4 8 -5 20 -4 25 2 6 -2 35 -8 65
-6 30 -13 72 -16 93 -5 28 -11 37 -25 37 -12 0 -20 -7 -20 -17z"/>
<path d="M1920 1945 c0 -15 7 -28 18 -32 27 -10 73 -51 61 -55 -14 -5 0 -38
17 -38 8 0 14 -5 14 -11 0 -6 -7 -9 -15 -5 -16 6 -19 -3 -9 -28 7 -19 73 -33
83 -18 4 7 11 4 20 -10 13 -20 12 -21 -44 -16 -53 4 -56 4 -52 -16 8 -34 26
-142 48 -291 l21 -139 -27 -22 c-22 -17 -26 -27 -21 -48 3 -14 10 -26 15 -26
16 0 105 41 138 63 33 22 46 54 19 44 -8 -3 -31 -9 -50 -13 -29 -5 -36 -3 -36
10 0 12 11 16 48 18 26 0 55 0 65 0 25 -3 74 79 88 147 16 76 6 203 -21 273
-12 32 -44 85 -71 117 -48 57 -78 78 -108 72 -7 -1 -10 2 -6 8 7 12 0 13 -55
13 l-35 -1 30 8 30 7 -40 6 c-22 4 -59 7 -82 8 -40 1 -43 -1 -43 -25z m65 -15
c3 -5 -1 -10 -9 -10 -9 0 -16 5 -16 10 0 6 4 10 9 10 6 0 13 -4 16 -10z m70
-31 c4 -5 -8 -9 -25 -9 -17 0 -29 4 -26 8 7 11 45 12 51 1z m135 -19 c0 -5 -9
-10 -20 -10 -11 0 -20 5 -20 10 0 6 9 10 20 10 11 0 20 -4 20 -10z m-45 -100
c3 -5 2 -10 -4 -10 -5 0 -13 5 -16 10 -3 6 -2 10 4 10 5 0 13 -4 16 -10z m103
-95 c-3 -3 -21 -10 -39 -15 -31 -9 -32 -8 -15 5 18 14 66 22 54 10z m-128 -24
c0 -5 -7 -11 -15 -15 -15 -5 -20 5 -8 17 9 10 23 9 23 -2z m0 -48 c-14 -3 -31
-10 -37 -15 -8 -6 -13 -7 -13 -1 0 17 13 23 44 22 27 -2 28 -2 6 -6z"/>
<path d="M1778 1936 c-45 -24 -49 -27 -42 -38 4 -6 9 -5 15 3 4 7 11 10 16 6
12 -13 -19 -27 -45 -20 -17 4 -31 -4 -62 -38 -101 -110 -118 -303 -40 -466 57
-122 155 -188 295 -199 70 -5 77 -4 71 11 -3 9 -6 23 -6 30 0 7 -11 16 -25 19
-13 3 -29 15 -35 26 -9 17 -47 233 -71 408 -5 40 -13 82 -17 95 -15 41 -6 99
17 118 11 9 21 27 21 38 0 17 -6 21 -32 21 -18 0 -45 -7 -60 -14z m22 -66 c0
-5 -4 -10 -10 -10 -5 0 -10 5 -10 10 0 6 5 10 10 10 6 0 10 -4 10 -10z m-90
-24 c0 -3 -4 -8 -10 -11 -5 -3 -10 -1 -10 4 0 6 5 11 10 11 6 0 10 -2 10 -4z
m65 -86 c-3 -5 -10 -10 -16 -10 -5 0 -9 5 -9 10 0 6 7 10 16 10 8 0 12 -4 9
-10z m42 -65 c0 -8 -4 -15 -9 -15 -4 0 -8 7 -8 15 0 8 4 15 8 15 5 0 9 -7 9
-15z"/>
<path d="M6969 1919 c-8 -15 -8 -19 0 -15 6 4 17 1 24 -6 14 -15 19 -48 6 -48
-5 0 -9 -7 -9 -16 0 -10 -5 -14 -15 -10 -9 3 -18 -1 -22 -10 -7 -19 2 -28 19
-18 7 5 22 10 33 11 11 2 24 8 29 13 13 13 8 90 -6 107 -16 20 -46 16 -59 -8z"/>
<path d="M6921 1908 c-1 -9 4 -29 10 -45 9 -25 12 -26 20 -10 6 9 18 17 27 17
16 1 16 1 -1 11 -9 5 -22 7 -27 4 -6 -4 -14 4 -19 17 -7 16 -10 18 -10 6z"/>
<path d="M1382 1878 c5 -15 28 -23 28 -10 0 5 -7 13 -16 16 -10 4 -14 1 -12
-6z"/>
<path d="M1062 1835 c-48 -15 -84 -36 -125 -74 -91 -83 -98 -237 -16 -326 48
-52 103 -77 247 -111 114 -26 162 -51 162 -84 0 -10 4 -22 10 -25 12 -7 -46
-72 -72 -81 -25 -7 -21 -57 4 -62 19 -4 115 37 144 60 79 64 108 120 109 209
0 56 -4 73 -30 114 -38 61 -119 108 -225 131 -169 36 -210 59 -210 118 0 26 7
41 30 59 19 16 30 35 30 51 0 33 -7 36 -58 21z m-32 -45 c0 -5 -4 -10 -10 -10
-5 0 -10 5 -10 10 0 6 5 10 10 10 6 0 10 -4 10 -10z m-3 -36 c-3 -3 -12 -4
-19 -1 -8 3 -5 6 6 6 11 1 17 -2 13 -5z m-60 -56 c-18 -11 -24 -10 -31 8 -3 8
-2 12 3 9 5 -3 13 0 17 6 4 8 9 7 15 -2 5 -8 3 -17 -4 -21z"/>
<path d="M1170 1822 c0 -23 47 -39 63 -23 8 8 5 11 -10 11 -12 0 -29 7 -37 16
-15 14 -16 14 -16 -4z"/>
<path d="M1264 1808 c-5 -8 -2 -9 9 -5 9 3 19 2 22 -2 3 -5 -2 -12 -11 -15 -8
-3 -12 -11 -9 -17 4 -6 14 -8 23 -4 9 3 13 3 10 0 -4 -4 9 -27 28 -52 19 -24
34 -51 34 -58 0 -14 29 -35 49 -35 23 0 30 37 20 98 -10 56 -13 60 -41 66 -17
3 -43 6 -59 6 -19 0 -29 5 -29 15 0 18 -36 20 -46 3z m132 -42 c18 -19 18 -26
-1 -26 -8 0 -15 -4 -15 -10 0 -5 -8 -10 -17 -10 -17 1 -17 1 0 11 21 12 23 31
2 23 -11 -5 -13 -2 -9 10 8 20 21 20 40 2z"/>
<path d="M6985 1760 c-27 -11 -65 -19 -84 -20 -30 0 -32 -2 -20 -17 8 -9 9
-14 3 -10 -6 3 -49 0 -97 -8 -47 -8 -107 -12 -132 -10 -40 4 -46 3 -41 -13 4
-12 0 -17 -17 -18 -28 -1 -50 -7 -57 -15 -5 -7 -60 -13 -99 -10 -24 1 -24 1
-5 17 19 15 19 15 -1 10 -11 -2 -62 -10 -113 -17 -65 -9 -87 -15 -73 -21 12
-4 28 -5 36 -2 8 4 15 1 15 -5 0 -6 -6 -11 -14 -11 -8 0 -17 -7 -20 -16 -5
-12 -15 -14 -44 -10 -42 7 -79 -8 -49 -20 9 -3 33 -4 52 -2 19 2 35 1 35 -4 0
-10 31 2 52 20 13 11 30 13 69 8 32 -4 49 -3 45 3 -4 5 -1 13 5 17 6 3 14 1
18 -5 5 -8 26 -9 64 -5 31 4 55 10 53 13 -3 4 13 5 35 3 30 -3 39 -1 39 12 0
12 -8 14 -32 11 l-33 -5 34 16 c27 12 36 13 42 3 4 -7 5 -17 3 -21 -6 -9 27
-10 78 -2 21 4 35 11 32 16 -3 5 5 6 18 3 13 -3 50 -1 83 5 33 6 70 11 83 11
12 -1 22 4 22 9 0 6 10 8 23 5 15 -4 28 -1 36 9 16 19 6 37 -17 30 -10 -4 -13
-2 -7 3 6 4 21 21 34 36 29 32 18 33 -54 7z m-65 -74 c0 -3 -4 -8 -10 -11 -5
-3 -10 -1 -10 4 0 6 5 11 10 11 6 0 10 -2 10 -4z m-205 -16 c3 -5 1 -10 -4
-10 -6 0 -11 5 -11 10 0 6 2 10 4 10 3 0 8 -4 11 -10z m-28 -16 c-3 -3 -12 -4
-19 -1 -8 3 -5 6 6 6 11 1 17 -2 13 -5z"/>
<path d="M5270 1758 c0 -4 11 -7 25 -6 14 1 25 6 25 10 0 4 -11 7 -25 6 -14
-1 -25 -6 -25 -10z"/>
<path d="M6476 1671 c-14 -5 -16 -10 -7 -15 6 -4 17 -3 24 2 7 5 21 12 32 15
16 4 15 5 -5 5 -14 0 -34 -3 -44 -7z"/>
<path d="M2982 1608 c-7 -7 -12 -22 -12 -34 0 -34 -29 -106 -53 -132 -12 -13
-35 -30 -50 -39 -22 -11 -28 -20 -25 -41 2 -20 8 -27 23 -26 33 2 68 10 98 22
15 7 46 11 67 10 22 -1 42 1 45 4 2 2 -2 45 -10 94 -8 49 -18 104 -21 122 -4
25 -10 32 -27 32 -13 0 -28 -5 -35 -12z"/>
<path d="M6000 1599 c-58 -10 -152 -25 -210 -34 -171 -25 -160 -21 -157 -66 1
-21 4 -39 6 -39 2 0 21 5 42 12 31 9 37 14 28 25 -6 7 -8 13 -3 14 5 0 40 1
79 3 l70 2 -55 -17 c-47 -14 -50 -16 -22 -16 18 0 35 4 38 9 3 4 35 8 72 9 37
0 76 4 87 9 18 8 18 9 2 9 -10 1 -25 8 -33 16 -9 8 -25 15 -37 15 -12 0 -17 4
-11 9 10 9 146 31 197 31 l32 0 -29 -15 c-15 -8 -32 -13 -37 -10 -4 3 -17 -3
-28 -14 -12 -12 -16 -23 -10 -26 11 -7 115 4 144 16 19 7 19 8 -2 8 -16 1 -21
6 -17 16 4 9 0 15 -7 15 -8 0 -3 9 11 20 l25 20 -35 -1 c-19 -1 -82 -10 -140
-20z m-133 -81 c-3 -8 -6 -5 -6 6 -1 11 2 17 5 13 3 -3 4 -12 1 -19z"/>
<path d="M5445 1511 c-49 -9 -98 -21 -107 -25 -9 -4 -21 -5 -26 -2 -19 11 -23
-26 -5 -39 30 -22 9 -25 -51 -8 -51 14 -56 18 -36 25 38 14 18 16 -48 5 -36
-6 -66 -16 -69 -24 -6 -15 -43 -18 -43 -3 0 10 -54 6 -90 -7 -8 -3 -26 -6 -40
-7 -89 -7 -160 -20 -160 -28 0 -6 9 -8 20 -5 11 3 20 1 20 -4 0 -5 -7 -9 -15
-9 -18 0 -20 -16 -2 -24 10 -5 10 -7 0 -12 -18 -8 -16 -25 2 -18 8 4 15 14 15
23 0 11 10 17 30 18 17 1 28 -2 25 -6 -2 -5 5 -9 18 -8 12 0 30 -3 40 -8 13
-5 16 -4 11 8 -8 21 15 32 29 13 11 -14 23 -14 127 3 75 11 114 22 113 29 -4
15 14 16 19 1 3 -8 31 -7 98 5 92 16 124 26 82 26 -35 0 -25 18 13 26 19 3 32
10 29 15 -3 5 0 9 5 9 6 0 11 -7 11 -15 0 -21 20 -19 21 3 0 11 2 12 6 4 4
-10 10 -9 26 5 11 10 17 12 13 6 -11 -19 2 -16 31 7 14 11 32 20 40 20 8 0 11
5 8 10 -8 13 -52 11 -160 -9z m-435 -95 c0 -2 -7 -6 -15 -10 -8 -3 -15 -1 -15
4 0 6 7 10 15 10 8 0 15 -2 15 -4z m105 -16 c-3 -5 -13 -10 -21 -10 -8 0 -14
5 -14 10 0 6 9 10 21 10 11 0 17 -4 14 -10z"/>
<path d="M4541 1368 c-170 -28 -135 -36 54 -12 34 5 37 3 21 -7 -11 -6 -29
-13 -40 -14 -33 -4 -34 -4 -40 -21 -7 -19 2 -37 15 -28 6 3 33 8 61 10 28 1
52 5 54 6 2 2 -3 15 -9 28 -11 22 -10 27 8 42 20 17 20 17 0 15 -11 0 -67 -9
-124 -19z"/>
<path d="M4680 1349 c-11 -8 -12 -12 -2 -16 6 -2 9 -10 6 -16 -5 -8 -2 -8 7 1
7 6 26 12 41 12 15 0 28 5 28 10 0 6 -9 10 -19 10 -11 0 -25 2 -33 5 -7 3 -20
0 -28 -6z"/>
<path d="M4370 1341 c-14 -4 -71 -14 -127 -21 -73 -9 -103 -17 -103 -27 0 -10
-4 -11 -19 -1 -15 9 -28 9 -59 0 -22 -7 -53 -12 -70 -12 -42 0 -136 -22 -143
-33 -4 -6 -14 -7 -22 -4 -9 3 -21 -1 -27 -9 -9 -10 -9 -14 -1 -14 6 0 11 5 11
11 0 5 4 8 10 4 5 -3 6 -13 3 -21 -5 -14 -3 -14 14 -6 21 12 28 12 110 12 28
0 55 5 58 10 4 6 15 8 26 5 13 -4 19 -2 19 9 0 9 6 17 13 17 40 4 72 9 82 13
8 3 10 -4 7 -21 -5 -24 -3 -25 24 -18 16 5 54 10 84 12 30 1 89 7 130 12 41 6
81 10 88 10 36 2 -22 41 -61 41 -14 0 -17 5 -12 20 7 21 4 22 -35 11z m-70
-52 c0 -18 -3 -19 -15 -9 -8 7 -23 9 -32 6 -15 -5 -15 -4 1 9 28 21 46 19 46
-6z m77 -1 c-3 -8 -6 -5 -6 6 -1 11 2 17 5 13 3 -3 4 -12 1 -19z"/>
<path d="M915 1299 c-4 -5 -4 -37 0 -70 l7 -60 44 7 c32 4 44 3 44 -6 0 -7 7
-10 15 -7 7 3 22 -2 32 -11 11 -9 14 -14 8 -11 -5 4 -17 7 -25 8 -8 1 -37 4
-64 7 l-49 6 8 -38 c4 -22 9 -50 12 -64 6 -33 9 -35 27 -17 21 20 76 29 123
19 21 -4 52 -8 68 -8 24 1 31 6 33 26 2 22 -3 27 -48 43 -64 23 -114 67 -152
134 -23 40 -35 53 -53 53 -13 0 -27 -5 -30 -11z m73 -180 c-2 -6 -8 -10 -13
-10 -5 0 -11 4 -13 10 -2 6 4 11 13 11 9 0 15 -5 13 -11z"/>
<path d="M3610 1222 c-52 -8 -98 -19 -101 -24 -3 -5 -17 -6 -32 -3 -14 4 -35
1 -48 -5 -12 -7 -54 -14 -93 -15 -41 -2 -84 -10 -101 -19 -27 -14 -28 -16 -7
-16 12 0 25 -7 28 -15 4 -8 11 -12 18 -8 17 11 125 9 123 -2 -3 -13 18 -11
288 31 243 38 300 51 230 55 -22 1 -44 0 -50 -1 -42 -9 -57 -9 -80 0 -18 7
-25 15 -21 25 7 19 -22 18 -154 -3z m40 -39 c0 -13 -60 -43 -83 -43 -20 1 -21
1 -4 11 14 8 16 14 6 25 -10 12 -4 14 35 14 25 0 46 -3 46 -7z m-180 -38 l25
-14 -26 -1 c-15 0 -32 7 -39 15 -17 20 5 20 40 0z"/>
<path d="M2923 1107 c-13 -5 -23 -13 -23 -17 0 -5 -7 -11 -16 -14 -12 -4 -15
-2 -10 9 7 19 -12 19 -134 -3 -75 -13 -95 -21 -98 -35 -2 -10 0 -17 5 -16 20
3 77 -3 66 -8 -20 -8 -15 -23 7 -23 11 0 20 5 20 11 0 5 4 8 9 5 5 -4 22 -1
37 5 16 5 30 6 32 1 1 -4 16 -6 33 -4 18 3 28 9 26 17 -7 17 41 22 100 9 18
-3 49 -3 69 1 l37 6 -32 20 c-17 10 -43 19 -56 19 -14 0 -25 4 -25 9 0 15 -24
19 -47 8z m17 -27 c-8 -5 -17 -7 -19 -4 -3 3 1 9 9 14 8 5 17 7 19 4 3 -3 -1
-9 -9 -14z m-136 -35 c-24 -18 -77 -20 -72 -2 3 6 20 17 39 24 41 13 62 0 33
-22z"/>
<path d="M3128 1083 c-27 -7 -22 -23 7 -23 16 0 25 6 25 15 0 15 -2 16 -32 8z"/>
<path d="M2547 1049 c-10 -6 -24 -9 -31 -6 -15 6 -347 -47 -365 -58 -7 -4 -37
-9 -67 -10 -32 -1 -61 -9 -72 -18 -12 -11 -22 -13 -34 -6 -25 14 -258 -20
-258 -38 0 -7 -7 -13 -15 -13 -9 0 -18 -7 -22 -16 -4 -12 -14 -14 -44 -9 -33
6 -39 4 -39 -11 0 -15 7 -16 60 -11 34 4 69 11 80 17 24 13 70 13 70 0 0 -5
-5 -10 -12 -10 -6 0 -9 -2 -7 -5 3 -2 18 0 35 4 16 5 23 10 15 10 -7 1 -11 7
-8 15 4 9 -1 16 -11 19 -9 2 2 4 26 4 30 0 40 -3 33 -10 -7 -7 -7 -15 -1 -22
11 -13 150 3 150 17 0 5 5 6 10 3 6 -4 60 1 120 11 94 14 109 19 99 31 -11 12
-9 12 13 2 28 -12 146 2 157 19 3 5 26 9 51 8 34 -1 45 3 48 16 2 12 -3 17
-20 16 -49 -3 -78 3 -78 15 0 14 67 16 88 3 6 -3 13 -2 17 4 11 18 47 11 52
-10 4 -14 14 -20 34 -20 34 0 38 15 7 24 -18 5 -20 8 -9 15 36 23 -33 43 -72
20z m-213 -55 c19 -7 21 -34 3 -34 -7 0 -18 9 -25 20 -12 20 -6 25 22 14z
m-254 -45 c0 -6 -4 -7 -10 -4 -5 3 -10 11 -10 16 0 6 5 7 10 4 6 -3 10 -11 10
-16z m110 11 c0 -5 -19 -9 -42 -9 l-43 2 35 7 c19 4 38 8 43 9 4 0 7 -3 7 -9z
m-273 -26 c-3 -3 -12 -4 -19 -1 -8 3 -5 6 6 6 11 1 17 -2 13 -5z"/>
<path d="M626 1041 c-4 -7 -5 -15 -2 -18 9 -9 19 4 14 18 -4 11 -6 11 -12 0z"/>
<path d="M1688 913 c7 -3 16 -2 19 1 4 3 -2 6 -13 5 -11 0 -14 -3 -6 -6z"/>
<path d="M576 903 c-28 -4 -28 -6 -22 -50 3 -25 6 -52 6 -60 0 -9 6 -13 15 -9
8 3 15 1 15 -4 0 -6 -4 -10 -10 -10 -12 0 -13 -50 -2 -66 22 -34 91 -44 113
-18 11 14 10 18 -5 29 -10 8 -16 20 -14 27 6 18 -16 38 -43 38 -28 0 -14 17
19 22 12 1 23 6 22 11 0 4 0 21 0 38 0 31 0 32 -42 26 -43 -5 -43 -5 -15 9 44
24 35 27 -37 17z m79 -83 c3 -5 -3 -10 -14 -10 -12 0 -21 5 -21 10 0 6 6 10
14 10 8 0 18 -4 21 -10z"/>
<path d="M1510 890 l-35 -7 35 -2 c19 -2 29 -5 23 -8 -7 -2 -13 -11 -13 -19 0
-16 -16 -19 -25 -4 -3 6 -14 10 -23 10 -14 0 -15 -2 -2 -10 15 -10 16 -9 -30
-23 -10 -3 -6 -8 14 -16 22 -9 48 -9 109 1 44 6 74 14 66 16 -8 2 -21 6 -29 9
-8 4 -18 6 -22 5 -4 -1 -12 7 -18 18 -8 15 -6 21 7 29 17 10 16 10 -2 9 -11 0
-36 -4 -55 -8z"/>
<path d="M1400 870 c-8 -5 -10 -10 -5 -10 6 0 17 5 25 10 8 5 11 10 5 10 -5 0
-17 -5 -25 -10z"/>
<path d="M1295 829 c-10 -15 -4 -17 35 -11 29 4 32 6 15 13 -29 11 -43 11 -50
-2z"/>
<path d="M1078 823 c-16 -4 -16 -6 -3 -20 13 -12 20 -13 44 -2 48 21 17 37
-41 22z"/>
<path d="M960 800 c-11 -7 -5 -8 20 -4 43 8 51 14 19 14 -13 0 -31 -5 -39 -10z"/>
<path d="M1345 790 l-30 -8 37 -1 c20 0 40 4 43 9 7 11 -6 11 -50 0z"/>
<path d="M890 781 c0 -13 26 -32 33 -24 8 7 -11 33 -24 33 -5 0 -9 -4 -9 -9z"/>
<path d="M785 700 c-4 -6 3 -10 14 -10 25 0 27 6 6 13 -8 4 -17 2 -20 -3z"/>
<path d="M738 683 c7 -3 16 -2 19 1 4 3 -2 6 -13 5 -11 0 -14 -3 -6 -6z"/>
</g>
</svg>
